<?xml version="1.0" encoding="utf-8"?>
<!-- Generator: Adobe Illustrator 16.0.0, SVG Export Plug-In . SVG Version: 6.00 Build 0)  -->
<!DOCTYPE svg PUBLIC "-//W3C//DTD SVG 1.1//EN" "http://www.w3.org/Graphics/SVG/1.1/DTD/svg11.dtd">
<svg version="1.1" xmlns="http://www.w3.org/2000/svg" xmlns:xlink="http://www.w3.org/1999/xlink" x="0px" y="0px"
	 width="1717.369px" height="1717.369px" viewBox="0 0 1717.369 1717.369" enable-background="new 0 0 1717.369 1717.369"
	 xml:space="preserve">
<g id="horse">
	<g>
		<g>
			<path fill="#F3A71D" d="M1085.111,873.312c0,0,1.84-5.149,0-6.621c-1.839-1.473-7.725-9.933-14.714-15.45
				c-1.179-0.931-2.457-2.075-3.797-3.375c7.614,4.799,14.806,8.542,14.806,8.542s-18.238-15.854-29.012-25.64
				c-2.151-3.068-4.25-6.3-6.219-9.615c4.41,2.363,8.168,4.055,9.67,4.74c-2.496-1.747-9.162-10.608-13.917-18.201
				c-0.292-9.286,3.766-18.179,3.333-26.464c-0.612-11.771-10.52-28.492-18.001-32.661c-7.479-4.168-10.69-8.17-12.284-9.15
				c-1.596-0.981-5.764-4.292-8.46-6.989c-2.699-2.697-18.517-2.574-20.724-2.574s-10.054-1.841-12.016-2.453
				c-1.961-0.613-19.986-11.036-32.737-16.676c-12.753-5.64-20.109-3.801-27.222-4.414c-7.111-0.613-15.51,1.287-18.453,1.9
				c-2.942,0.613-15.879,1.533-15.879,1.533s0,0,0-0.368s0.551-1.717,0.735-2.515c0.185-0.796-2.574-0.122-3.065-0.122
				c-0.488,0-6.744,0.92-6.744,0.92c0.307-5.026-2.819-6.375-2.979-6.499c-0.163-0.122-0.023-0.735-0.003-1.533
				c0.023-0.795-0.757-1.409-1.186-2.021c-0.43-0.614-0.49-1.718-0.49-1.718s1.41-6.805,1.655-12.506
				c0.243-5.702-1.595-4.108-3.495-4.047c-1.901,0.061-11.034,9.196-11.034,9.196s-0.491-7.786-1.165-10.545
				c-0.676-2.759-2.514-5.579-2.697-7.173c-0.186-1.594,1.654-8.154-0.553-16.982s-7.479-15.204-9.258-19.066
				s-3.312-11.097-5.517-16.309c-2.208-5.21-9.688-14.651-9.688-14.651s0,0,0-0.245c0-0.246,0.125-2.085,0.613-2.943
				c0.49-0.859,1.043-0.307,1.043-0.307s1.227,0.062,2.514-0.553c1.287-0.612,1.104-1.349,1.471-1.593
				c0.369-0.245,1.043-1.165,1.043-1.165s-1.166-0.735-1.35-0.797s-0.428-1.472-0.428-1.962c0-0.491,0-1.656-0.186-2.575
				c-0.184-0.919-1.532-0.122-1.532-0.552c0-0.429,0.431-1.654,1.718-2.269c1.287-0.612,0.307-2.146,0.184-2.819
				c-0.124-0.675-0.798-1.165-0.858-1.533c-0.062-0.368,0.185-0.491,0.185-0.491l1.102-0.244c0.009-0.053,0.014-0.105,0.023-0.158
				c2.582-20.769-15.833-24.864-15.833-24.864c0.116-0.688-0.619-2.138-3.746-2.138c-3.128,0-0.993,1.176-2.944,1.657
				c-0.232,0.055-0.461,0.113-0.689,0.176c-16.107,4.363-18.254,21.71-18.254,21.71c-3.312,1.471-4.966,2.942-4.966,2.942
				c3.495,5.334,10.301,1.103,10.301,1.103l1.103,2.944l-0.552,2.391l-0.184,2.575l1.287,1.471l0.185,2.943l1.285,2.207l0.554,1.287
				l2.575,2.759l5.885,0.92c0,0-4.414,7.725-5.701,10.483s-2.392,13.978-2.208,16.737c0.184,2.759,3.128,13.059,3.128,13.059v5.333
				l-1.656,4.231l-2.76,2.391l-2.757,4.781l-2.575,2.76l-1.656,2.574l-2.758,2.207l-5.887,4.966l-3.126,3.863l-2.392,2.574
				l-5.334,3.126l-3.31,2.944c0,0-7.724-4.599-9.564-5.519c-1.839-0.92-6.621-2.574-8.644-3.126
				c-2.023-0.552-5.334-2.943-8.093-2.76s-8.277-3.494-12.139-4.782c-3.863-1.287-6.989,0-9.933-0.551
				c-2.942-0.553-4.413-1.104-8.275-0.553c-3.864,0.553-7.543,0.92-9.439,1.104c-1.896,0.184-5.459-1.287-9.321-0.736
				c-3.862,0.553-3.494,0-6.069,2.208c-2.575,2.207-3.127,0.92-5.886,1.472s-2.942-0.185-4.598,1.103
				c-1.657,1.287-12.138,4.415-12.138,4.415s-3.863-2.208-6.07-4.966s-4.048-5.702-5.52-7.541c-1.471-1.839-4.598,0-4.044,2.022
				c0.552,2.023,3.308,9.749,4.965,12.508c1.654,2.758,3.311,8.46,3.311,8.46s-1.287,7.54-2.207,10.668
				c-0.92,3.126-3.128,8.093-4.23,10.484c-1.104,2.391,1.839,7.724,1.839,7.724s0,4.781-0.184,8.093
				c-0.186,3.312-1.103,10.484-1.655,13.059c-0.551,2.574-1.654,9.38-2.759,12.139c-1.104,2.759-1.654,10.483-2.207,14.162
				c-0.551,3.679,4.415,4.599,4.415,4.599s-0.184-1.654,2.757,3.678c2.944,5.334,11.405,0,11.405,0s5.77,0.039,9.601-5.16
				c3.831-5.201,0-8.759,0-8.759l17.242-22.443c0,0,4.106-1.367,8.212-6.567c4.104-5.201,3.011-8.485,3.011-8.485
				c6.736,2.965,25.51,32.839,25.51,32.839s1.349,2.698,1.349,6.132c0,3.433-1.227,18.392,1.103,26.606
				c2.331,8.216,8.094,17.289,8.094,17.289s-2.207,10.913-2.452,15.695c-0.246,4.781-3.434,13.732-8.093,28.078
				c-4.66,14.346-8.093,26.117-8.093,28.202c0,2.084-0.491,3.556-2.33,8.215c-1.838,4.66-7.112,16.185-8.95,18.27
				c-1.84,2.085-0.736,6.499-1.225,7.356c-0.493,0.858-5.398,8.952-6.5,9.563c-1.104,0.614-1.595,3.066-2.084,3.312
				c-0.491,0.246-5.886,8.706-6.622,11.648s11.647-1.226,17.288-1.787s5.396-2.994,6.008-4.834c0.614-1.839-2.45-4.537-2.576-4.905
				c-0.121-0.367,0-3.434,0.861-4.168c0.858-0.736,5.763-0.244,6.252-2.207c0.49-1.963,1.35-5.149,2.207-9.687
				c0.859-4.537,7.971-24.401,8.094-26.239c0.121-1.841,6.865-11.771,6.865-11.771s2.576,2.452,4.169,4.414
				c1.596,1.961,16.309,23.786,17.29,25.626c0.981,1.839,8.338,2.819,10.423,4.782c2.083,1.963,3.677,1.593,10.545,7.479
				c6.864,5.886,7.109,2.698,7.847,1.227c0.736-1.471,1.717-10.054-0.245-16.676c-1.963-6.62-8.83-3.923-10.423-3.923
				c-1.595,0-3.188-0.367-4.416-1.594c-1.225-1.226-2.451-1.227-5.64-3.925c-3.187-2.697-13.609-15.448-15.57-17.532
				c-1.962-2.085-0.613-12.508-0.123-14.347c0.49-1.84,12.262-14.96,15.204-17.412s8.338-7.356,9.93-9.441
				c1.597-2.084,10.057-10.053,10.057-10.053s8.018-0.449,44.04,0.368c36.023,0.816,73.133-10.798,73.133-10.798
				s1.814,9.889,2.269,13.337c0.453,3.448,2.449,5.264,5.535,20.87s-0.091,19.418-2.359,22.05
				c-2.269,2.63-19.508,13.246-21.504,14.607s-9.8,4.9-11.524,5.535c-1.724,0.636-4.174,5.354-4.265,5.626
				c-0.09,0.272-1.725,4.266-2.631,4.99c-0.907,0.726-4.084,4.81-5.172,5.988c-1.088,1.18-3.538,5.081-3.447,6.896
				c0.091,1.814,0.091,9.165,1.361,10.072s10.615-1.815,12.43-2.813s5.535-4.99,5.808-5.172c0.271-0.182-0.181-2.269-0.181-3.902
				c0-1.633,0.271-1.361,0.451-1.996c0.182-0.636,1.544-1.089,1.907-1.089c0.362,0,3.991-2.358,5.444-3.629
				c1.452-1.271,0.272-3.085,0.816-3.63c0,0,1.22-1.655,3.266-3.266c13.865-10.914,40.378-25.95,44.824-29.762
				s2.994-8.893,1.18-11.252c-1.814-2.358-3.721-22.684-3.721-22.684s1.18,0.182,1.543,0.816c0.363,0.636,4.355,13.157,6.987,18.601
				c2.631,5.444,6.986,10.163,7.622,10.798c0.635,0.636,7.076,23.319,6.805,25.225c-0.273,1.906-9.074,30.397-11.433,31.668
				c-2.36,1.271-3.901,4.628-3.901,4.628s-6.262,2.631-7.169,2.993c-0.907,0.364-9.769,9.805-9.494,10.35
				c0.064,0.134-0.484,1.159,1.142,1.434c5.003,0.845,21.9,0.302,27.412,0.422c7.283,0.159,5.469-9.627,5.469-9.627l18.278-61.736
				c0,0,0.54-5.154-0.538-6.864c-4.189-6.647-14.43-23.311-14.43-27.408c0-5.15,6.989-19.129,12.139-26.485
				c5.15-7.356,14.713-38.623,14.713-38.623s3.313,0.734,5.52,2.941c2.207,2.208,3.977,7.216,3.977,9.054
				c0,1.84,4.482,9.339,7.058,15.96c2.575,6.622,4.415,8.46,4.415,21.704c0,13.242,4.045,9.563,9.195,18.392
				c5.15,8.828,6.99,11.035,11.403,18.392c2.176,3.627,9.39,5.987,16.809,8.111c2.475,2.913,5.198,5.387,7.5,5.686
				c5.931,0.772,0-1.031,0-1.031s-1.277-1.298-2.854-3.341c5.974,1.694,11.404,3.374,13.631,5.603
				c5.52,5.517,9.055,15.872,9.055,15.872l1.473-6.62l11.854,2.574L1085.111,873.312z"/>
		</g>
		<path fill="#F3A71D" d="M1055.846,825.893c0.191,0.135,0.366,0.24,0.506,0.287
			C1056.758,826.315,1056.529,826.205,1055.846,825.893z"/>
	</g>
	<path fill="#F3D297" d="M389.602,952.752c-8.934-167.083,75.671-326.199,219.783-411.77
		c100.389-59.605,216.964-75.783,330.639-54.467c163.192,36.503,297.455,156.265,344.22,318.422
		c11.882,41.197,17.602,84.711,16.261,127.582c-0.703,16.231-3.19,30.509-3.942,4.306c-0.671-22.911-3.663-45.632-7.766-68.157
		c-16.181-88.963-62.104-174.8-127.292-237.528c-97.033-92.271-224.219-137.684-357.108-127.738
		c-168.021,12.573-317.786,127.495-379.898,282.817c-11.186,27.97-19.521,56.922-24.919,86.545
		C397.872,882.128,393.717,952.153,389.602,952.752z"/>
	<rect x="385.308" y="1185.129" fill="#F3D297" width="917.626" height="11.979"/>
	<rect x="385.308" y="985.128" fill="#F3D297" width="917.626" height="11.979"/>
	<rect x="0.5" y="0.5" fill="none" width="1716.369" height="1716.369"/>
</g>
<g id="Layer_1">
	<g>
		<path fill="#F3A71D" d="M457.02,1123.234c-1.992,7.243-6.139,22.315-26.854,22.315h-5.684c-13.018,0-13.018-1.112-13.018-11.756
			v-41.266h19.172c7.691,0,9.247,5.749,10.37,12.693l0.146,0.888l2.979-0.247v-31.088l-2.981-0.24l-0.129,0.814
			c-1.105,6.981-2.65,12.76-10.385,12.76h-19.172v-47.183h16.805c20.719,0,24.863,15.073,26.857,22.317
			c0.225,0.82,0.418,1.521,0.6,2.064l2.901-0.727l-4.789-28.075h-68.333l-0.198,2.987c6.728,0.896,10.533,1.979,10.533,13.819
			v79.851c0,11.84-3.806,12.923-10.533,13.819l0.198,2.987h70.462v-1.5l4.555-26.573l-2.901-0.729
			C457.439,1121.712,457.246,1122.413,457.02,1123.234z"/>
		<path fill="#F3A71D" d="M668.926,1136.572c-10.795,8.719-21.698,12.607-35.353,12.607c-7.877,0-16.015-1.165-25.438-2.515
			c-11.4-1.632-24.323-3.482-39.421-3.482c-4.952,0-9.647,0.164-14.189,0.499c17.197-10.28,26.894-28.258,26.894-50.444
			c0-40.604-30.635-59.099-59.1-59.099c-28.463,0-59.1,18.494-59.1,59.099c0,18.241,6.391,33.565,18.48,44.317
			c10.697,9.515,25.077,14.754,40.496,14.753h0.006c1.385,0,2.781-0.044,4.126-0.129c4.03-0.169,7.699-0.864,11.065-1.594
			c3.89-0.414,8.098-0.615,12.859-0.615c16.575,0,31.85,3.277,45.326,6.169c11.689,2.509,22.731,4.878,33.103,4.878
			c17.407,0,30.616-6.742,42.827-21.861l0.846-1.048l-2.377-2.384L668.926,1136.572z M522.339,1148.197
			c-20.112-0.001-41.759-17.2-41.759-54.96c0-37.784,21.637-54.994,41.738-54.994c20.104,0,41.739,17.21,41.739,54.994
			c0,22.952-9.784,51.048-37.346,54.691C525.266,1148.106,523.795,1148.197,522.339,1148.197L522.339,1148.197z"/>
		<path fill="#F3A71D" d="M654.877,1036.506l-0.199,2.987c6.202,0.826,10.534,10.208,10.534,22.814v25.723
			c0,20.563-12.979,31.323-25.801,31.323c-12.214,0-24.536-9.686-24.536-31.323v-33.929c0-12.567,4.002-13.738,10.532-14.608
			l-0.198-2.987h-36.454l-0.198,2.987c6.531,0.87,10.534,2.041,10.534,14.608v33.919c-0.075,11.638,3.573,21.5,10.549,28.521
			c6.454,6.495,15.235,10.072,24.723,10.072c9.431,0,18.502-3.711,24.89-10.182c6.939-7.029,10.528-16.857,10.38-28.402v-25.723
			c0-12.606,4.332-21.988,10.534-22.814l-0.198-2.987H654.877z"/>
		<path fill="#F3A71D" d="M790.102,1036.506l-0.201,2.986c6.203,0.846,10.538,9.773,10.538,21.711v55.718l-45.759-80.415h-32.113
			h-0.015H686.27l-0.197,2.987c6.728,0.896,10.534,1.979,10.534,13.819v79.851c0,11.84-3.807,12.923-10.534,13.819l0.197,2.987
			h36.297l0.202-2.986c-6.534-0.891-10.538-2.034-10.538-13.82v-79.851c0-11.786,4.004-12.93,10.538-13.82l-0.202-2.981l9.33,2.927
			c6.473,2.03,10.784,6.187,10.784,19.872v65.963c0,12.146-4.233,20.871-10.533,21.71l0.198,2.987h24.933l0.202-2.986
			c-6.111-0.833-10.379-9.761-10.379-21.711v-68.616l53.803,95.365h3.795v-90.818c0-11.938,4.335-20.865,10.539-21.711l-0.203-2.986
			H790.102z"/>
		<path fill="#F3A71D" d="M896.172,1123.234c-1.992,7.243-6.139,22.315-26.854,22.315h-5.681c-13.019,0-13.019-1.112-13.019-11.756
			v-41.266h19.173c7.689,0,9.244,5.748,10.368,12.692l0.146,0.889l2.979-0.247v-31.088l-2.98-0.24l-0.13,0.815
			c-1.104,6.98-2.649,12.759-10.382,12.759h-19.173v-47.183h16.806c20.718,0,24.863,15.073,26.855,22.317
			c0.225,0.82,0.419,1.521,0.601,2.064l2.901-0.727l-4.79-28.075h-68.332l-0.198,2.987c6.728,0.896,10.533,1.979,10.533,13.819
			v79.851c0,11.84-3.806,12.923-10.533,13.819l0.198,2.987h70.46v-1.5l4.556-26.573l-2.901-0.729
			C896.592,1121.712,896.398,1122.413,896.172,1123.234z"/>
		<path fill="#F3A71D" d="M984.814,1036.506h-37.706l-0.198,2.987c6.727,0.896,10.534,1.979,10.534,13.819v79.851
			c0,11.84-3.808,12.923-10.534,13.819l0.198,2.987h37.56c16.366,0,30.119-6.164,39.77-17.826
			c8.524-10.299,13.218-24.137,13.218-38.967c0-14.806-4.681-28.617-13.179-38.89
			C1014.852,1042.654,1001.137,1036.506,984.814,1036.506z M973.068,1052.682c0-10.583,0.429-11.754,13.143-11.756
			c23.531,1.092,35.245,28.068,34.654,54.166c-0.551,24.302-12.113,50.458-36.18,50.458c-11.186-0.147-11.617-1.468-11.617-11.756
			V1052.682z"/>
		<path fill="#F3A71D" d="M1109.485,1036.506l-0.198,2.987c6.301,0.839,10.534,9.563,10.534,21.71v54.285
			c0,19.528-12.979,29.746-25.801,29.746c-12.214,0-24.538-9.197-24.538-29.746v-62.176c0-11.84,3.805-12.924,10.533-13.819
			l-0.198-2.987h-36.453l-0.198,2.987c6.728,0.896,10.533,1.979,10.533,13.819v62.166c-0.072,10.817,3.387,20.058,10.007,26.722
			c6.397,6.441,15.607,10.137,25.265,10.137c9.739,0,19.01-3.734,25.434-10.246c6.58-6.668,9.98-15.874,9.836-26.603v-54.285
			c0-11.95,4.27-20.878,10.381-21.711l-0.202-2.986H1109.485z"/>
		<path fill="#F3A71D" d="M1144.981,1036.506l-4.788,28.075l2.9,0.727c0.182-0.544,0.375-1.245,0.602-2.066
			c1.949-7.084,5.957-21.657,25.514-22.294v92.216c0,11.84-3.808,12.923-10.535,13.819l0.198,2.987h36.296l0.201-2.986
			c-6.629-0.903-10.38-1.991-10.38-13.82v-92.215c19.179,0.642,23.364,15.047,25.4,22.052c0.267,0.922,0.499,1.719,0.726,2.346
			l2.889-0.773l-4.953-28.066H1144.981z"/>
		<path fill="#F3A71D" d="M1284.301,1057.958c5.762-14.884,10.213-17.632,18.633-18.459l-0.146-2.993h-28.247l-0.062,2.999
			c4.101,0.168,6.615,1.047,7.692,2.686c1.509,2.299,0.838,6.691-2.246,14.688l-16.585,43.212l-18.324-47.934
			c-1.967-5.271-2.321-8.412-1.152-10.182c0.981-1.486,3.296-2.294,7.076-2.472l-0.069-2.998h-36.77l-0.073,2.998
			c8.504,0.418,11.363,4.646,17.455,20.037l18.202,46.446v21.179c0,13.686-4.31,17.842-10.784,19.872l-9.345,2.932h56.042
			l-9.346-2.932c-6.473-2.03-10.784-6.187-10.784-19.872v-21.021L1284.301,1057.958z"/>
	</g>
</g>
</svg>
